<svg width="15" height="12" viewBox="0 0 15 12" fill="none" xmlns="http://www.w3.org/2000/svg">
<path fill-rule="evenodd" clip-rule="evenodd" d="M14.7915 5.77148C14.7915 5.35727 14.4557 5.02148 14.0415 5.02148L1.5415 5.02148C1.12729 5.02148 0.791504 5.35727 0.791504 5.77148C0.791504 6.1857 1.12729 6.52148 1.5415 6.52148L14.0415 6.52148C14.4557 6.52148 14.7915 6.1857 14.7915 5.77148Z" fill="#777E91"/>
<path fill-rule="evenodd" clip-rule="evenodd" d="M7.11443 11.3212C7.40672 11.0277 7.40574 10.5529 7.11224 10.2606L2.60425 5.7712L7.11219 1.28263C7.40572 0.990367 7.40674 0.515494 7.11448 0.221971C6.82222 -0.0715523 6.34734 -0.0725746 6.05382 0.219687L1.01216 5.23969C0.870811 5.38042 0.79135 5.57167 0.791342 5.77113C0.791334 5.97059 0.870779 6.16184 1.01211 6.30259L6.05378 11.3234C6.34728 11.6157 6.82215 11.6147 7.11443 11.3212Z" fill="#777E91"/>
</svg>
