<svg width="24" height="24" viewBox="0 0 24 24" fill="none" xmlns="http://www.w3.org/2000/svg">
<path fill-rule="evenodd" clip-rule="evenodd" d="M1.24976 8.5C1.24976 8.08579 1.58554 7.75 1.99976 7.75H13.4998C13.914 7.75 14.2498 8.08579 14.2498 8.5C14.2498 8.91421 13.914 9.25 13.4998 9.25H1.99976C1.58554 9.25 1.24976 8.91421 1.24976 8.5Z" fill="#777E91"/>
<path fill-rule="evenodd" clip-rule="evenodd" d="M5.24976 16.5C5.24976 16.0858 5.58554 15.75 5.99976 15.75H7.99976C8.41397 15.75 8.74976 16.0858 8.74976 16.5C8.74976 16.9142 8.41397 17.25 7.99976 17.25H5.99976C5.58554 17.25 5.24976 16.9142 5.24976 16.5Z" fill="#777E91"/>
<path fill-rule="evenodd" clip-rule="evenodd" d="M9.74976 16.5C9.74976 16.0858 10.0855 15.75 10.4998 15.75H14.4998C14.914 15.75 15.2498 16.0858 15.2498 16.5C15.2498 16.9142 14.914 17.25 14.4998 17.25H10.4998C10.0855 17.25 9.74976 16.9142 9.74976 16.5Z" fill="#777E91"/>
<path fill-rule="evenodd" clip-rule="evenodd" d="M3.41583 4.91207C2.99076 5.33235 2.74976 6.13117 2.74976 7.89V16.11C2.74976 17.8688 2.99076 18.6676 3.41583 19.0879C3.84384 19.5111 4.65876 19.75 6.43976 19.75H17.5598C19.3408 19.75 20.1557 19.5111 20.5837 19.0879C21.0087 18.6676 21.2498 17.8688 21.2498 16.11V12.03C21.2498 11.6158 21.5855 11.28 21.9998 11.28C22.414 11.28 22.7498 11.6158 22.7498 12.03V16.11C22.7498 17.8612 22.5458 19.2574 21.6383 20.1546C20.7338 21.0489 19.3288 21.25 17.5598 21.25H6.43976C4.67075 21.25 3.26567 21.0489 2.36119 20.1546C1.45375 19.2574 1.24976 17.8612 1.24976 16.11V7.89C1.24976 6.13883 1.45375 4.74265 2.36119 3.84543C3.26567 2.95113 4.67075 2.75 6.43976 2.75H13.4998C13.914 2.75 14.2498 3.08579 14.2498 3.5C14.2498 3.91421 13.914 4.25 13.4998 4.25H6.43976C4.65876 4.25 3.84384 4.48887 3.41583 4.91207Z" fill="#777E91"/>
<path fill-rule="evenodd" clip-rule="evenodd" d="M15.7498 6.25C15.7498 5.83579 16.0855 5.5 16.4998 5.5H21.9998C22.414 5.5 22.7498 5.83579 22.7498 6.25C22.7498 6.66421 22.414 7 21.9998 7H16.4998C16.0855 7 15.7498 6.66421 15.7498 6.25Z" fill="#777E91"/>
<path fill-rule="evenodd" clip-rule="evenodd" d="M19.2498 2.75C19.664 2.75 19.9998 3.08579 19.9998 3.5V9C19.9998 9.41421 19.664 9.75 19.2498 9.75C18.8355 9.75 18.4998 9.41421 18.4998 9V3.5C18.4998 3.08579 18.8355 2.75 19.2498 2.75Z" fill="#777E91"/>
</svg>
