<svg width="56" height="56" viewBox="0 0 56 56" fill="none" xmlns="http://www.w3.org/2000/svg">
<path fill-rule="evenodd" clip-rule="evenodd" d="M44.5002 44.4962C37.3691 51.628 26.8098 53.1688 18.1686 49.1726C16.893 48.6589 15.8471 48.2438 14.8529 48.2438C12.0835 48.2603 8.63638 50.9455 6.84483 49.1561C5.05328 47.3644 7.74061 43.9146 7.74061 41.1285C7.74061 40.1341 7.34196 39.1069 6.82842 37.8287C2.83026 29.189 4.37325 18.6261 11.5043 11.4967C20.6074 2.39018 35.397 2.39018 44.5002 11.4943C53.6197 20.6149 53.6033 35.3921 44.5002 44.4962Z" stroke="#777E91" stroke-width="2" stroke-linecap="round" stroke-linejoin="round"/>
<path d="M37.1923 28.9635H37.2133" stroke="#777E91" stroke-width="2" stroke-linecap="round" stroke-linejoin="round"/>
<path d="M27.8378 28.9635H27.8588" stroke="#777E91" stroke-width="2" stroke-linecap="round" stroke-linejoin="round"/>
<path d="M18.4833 28.9635H18.5043" stroke="#777E91" stroke-width="2" stroke-linecap="round" stroke-linejoin="round"/>
</svg>
