<svg width="24" height="24" viewBox="0 0 24 24" fill="none" xmlns="http://www.w3.org/2000/svg">
<path fill-rule="evenodd" clip-rule="evenodd" d="M2.88269 12.745C3.5993 11.7077 4.92892 11.25 6.99976 11.25C7.54857 11.25 7.97172 11.3068 8.35192 11.4549C8.7089 11.5939 8.98148 11.7986 9.22101 11.9784C9.23065 11.9857 9.24023 11.9929 9.24976 12C9.28486 12.0263 9.31758 12.0557 9.34754 12.0877L10.3562 13.1663C11.2516 14.113 12.7503 14.1091 13.6323 13.1673L13.6345 13.165L14.6545 12.085C14.6838 12.054 14.7156 12.0256 14.7498 12C14.7593 11.9929 14.7689 11.9857 14.7785 11.9784C15.018 11.7986 15.2906 11.5939 15.6476 11.4549C16.0278 11.3068 16.4509 11.25 16.9998 11.25C19.0706 11.25 20.4002 11.7077 21.1168 12.745C21.4599 13.2416 21.61 13.8026 21.6809 14.3455C21.7498 14.8728 21.7498 15.4402 21.7498 15.973V17C21.7498 18.4466 21.4923 19.9093 20.5772 21.0136C19.6384 22.1465 18.1384 22.75 15.9998 22.75H7.99976C5.42865 22.75 3.84914 22.1797 3.00762 20.9612C2.60211 20.374 2.42073 19.7052 2.3342 19.0428C2.24972 18.396 2.24974 17.6975 2.24976 17.0278L2.24976 15.973C2.24974 15.4402 2.24972 14.8728 2.31857 14.3455C2.38947 13.8026 2.53961 13.2416 2.88269 12.745ZM3.80594 14.5398C3.75096 14.9608 3.74976 15.4356 3.74976 16V17C3.74976 17.7019 3.75096 18.308 3.82157 18.8485C3.89129 19.3823 4.0224 19.791 4.24189 20.1088C4.65038 20.7003 5.57086 21.25 7.99976 21.25H15.9998C17.8611 21.25 18.8612 20.7335 19.4223 20.0564C20.0072 19.3507 20.2498 18.3134 20.2498 17V16C20.2498 15.4356 20.2486 14.9608 20.1936 14.5398C20.1395 14.1255 20.0396 13.8247 19.8827 13.5975C19.5993 13.1873 18.9289 12.75 16.9998 12.75C16.5486 12.75 16.3317 12.7982 16.1919 12.8526C16.0528 12.9068 15.9388 12.9841 15.7008 13.1618L14.7272 14.1927C14.7268 14.1931 14.7263 14.1936 14.7259 14.194C13.2482 15.7704 10.7488 15.7666 9.2645 14.195L9.26197 14.1923L8.29728 13.1607C8.0602 12.9838 7.94639 12.9067 7.8076 12.8526C7.66779 12.7982 7.45094 12.75 6.99976 12.75C5.07059 12.75 4.40021 13.1873 4.11682 13.5975C3.95991 13.8247 3.86004 14.1255 3.80594 14.5398Z" fill="#777E91"/>
<path fill-rule="evenodd" clip-rule="evenodd" d="M4.88269 2.74495C5.5993 1.70766 6.92892 1.25 8.99976 1.25H14.9998C17.0706 1.25 18.4002 1.70766 19.1168 2.74495C19.4599 3.24156 19.61 3.80261 19.6809 4.34554C19.7498 4.8728 19.7498 5.44024 19.7498 5.97301V12C19.7498 12.4142 19.414 12.75 18.9998 12.75C18.5855 12.75 18.2498 12.4142 18.2498 12V6C18.2498 5.43556 18.2486 4.96078 18.1936 4.53977C18.1395 4.12552 18.0396 3.82469 17.8827 3.59755C17.5993 3.18734 16.9289 2.75 14.9998 2.75H8.99976C7.07059 2.75 6.40021 3.18734 6.11682 3.59755C5.95991 3.82469 5.86004 4.12552 5.80594 4.53977C5.75096 4.96078 5.74976 5.43556 5.74976 6V12C5.74976 12.4142 5.41397 12.75 4.99976 12.75C4.58554 12.75 4.24976 12.4142 4.24976 12L4.24976 5.97301C4.24974 5.44024 4.24972 4.8728 4.31857 4.34554C4.38947 3.80261 4.53961 3.24156 4.88269 2.74495Z" fill="#777E91"/>
<path fill-rule="evenodd" clip-rule="evenodd" d="M9.7998 9.22998C9.7998 8.81577 10.1356 8.47998 10.5498 8.47998H13.8798C14.294 8.47998 14.6298 8.81577 14.6298 9.22998C14.6298 9.64419 14.294 9.97998 13.8798 9.97998H10.5498C10.1356 9.97998 9.7998 9.64419 9.7998 9.22998Z" fill="#777E91"/>
<path fill-rule="evenodd" clip-rule="evenodd" d="M8.96973 6.22998C8.96973 5.81577 9.30551 5.47998 9.71973 5.47998H14.7197C15.1339 5.47998 15.4697 5.81577 15.4697 6.22998C15.4697 6.64419 15.1339 6.97998 14.7197 6.97998H9.71973C9.30551 6.97998 8.96973 6.64419 8.96973 6.22998Z" fill="#777E91"/>
</svg>
