<svg width="14" height="14" viewBox="0 0 14 14" fill="none" xmlns="http://www.w3.org/2000/svg">
<path d="M9.63672 3.29606L7.82839 1.89606C7.59505 1.66272 7.07005 1.54606 6.72005 1.54606L4.50338 1.54606C3.80338 1.54606 3.04505 2.07106 2.87005 2.77106L1.47005 7.02939C1.17838 7.84605 1.70338 8.54605 2.57838 8.54605L4.91172 8.54605C5.26172 8.54605 5.55339 8.83772 5.49505 9.24606L5.20338 11.1127C5.08672 11.6377 5.43672 12.2211 5.96172 12.3961C6.42839 12.5711 7.01172 12.3377 7.24505 11.9877L9.63672 8.42939" fill="#F44336"/>
<path d="M12.6113 3.29561L12.6113 9.01227C12.6113 9.82894 12.2613 10.1206 11.4447 10.1206L10.8613 10.1206C10.0447 10.1206 9.69466 9.82894 9.69466 9.01227L9.69466 3.29561C9.69466 2.47894 10.0447 2.18727 10.8613 2.18727L11.4447 2.18727C12.2613 2.18727 12.6113 2.47894 12.6113 3.29561Z" fill="#F44336"/>
</svg>
