<svg width="24" height="24" viewBox="0 0 24 24" fill="none" xmlns="http://www.w3.org/2000/svg">
<path fill-rule="evenodd" clip-rule="evenodd" d="M3.09443 3.09467C4.42889 1.7602 6.42578 1.25 8.99976 1.25H14.9998C17.5737 1.25 19.5706 1.7602 20.9051 3.09467C22.2396 4.42914 22.7498 6.42603 22.7498 9V15C22.7498 17.574 22.2396 19.5709 20.9051 20.9053C19.5706 22.2398 17.5737 22.75 14.9998 22.75H8.99976C6.42578 22.75 4.42889 22.2398 3.09443 20.9053C1.75996 19.5709 1.24976 17.574 1.24976 15V9C1.24976 6.42603 1.75996 4.42914 3.09443 3.09467ZM4.15509 4.15533C3.23955 5.07086 2.74976 6.57397 2.74976 9V15C2.74976 17.426 3.23955 18.9291 4.15509 19.8447C5.07062 20.7602 6.57373 21.25 8.99976 21.25H14.9998C17.4258 21.25 18.9289 20.7602 19.8444 19.8447C20.76 18.9291 21.2498 17.426 21.2498 15V9C21.2498 6.57397 20.76 5.07086 19.8444 4.15533C18.9289 3.2398 17.4258 2.75 14.9998 2.75H8.99976C6.57373 2.75 5.07062 3.2398 4.15509 4.15533Z" fill="#777E91"/>
<path fill-rule="evenodd" clip-rule="evenodd" d="M7.49976 9C7.49976 8.58579 7.83554 8.25 8.24976 8.25H15.7498C16.164 8.25 16.4998 8.58579 16.4998 9C16.4998 9.41421 16.164 9.75 15.7498 9.75H8.24976C7.83554 9.75 7.49976 9.41421 7.49976 9Z" fill="#777E91"/>
<path fill-rule="evenodd" clip-rule="evenodd" d="M7.49976 15C7.49976 14.5858 7.83554 14.25 8.24976 14.25H15.7498C16.164 14.25 16.4998 14.5858 16.4998 15C16.4998 15.4142 16.164 15.75 15.7498 15.75H8.24976C7.83554 15.75 7.49976 15.4142 7.49976 15Z" fill="#777E91"/>
</svg>
