<svg width="22" height="22" viewBox="0 0 22 22" fill="none" xmlns="http://www.w3.org/2000/svg">
<path fill-rule="evenodd" clip-rule="evenodd" d="M10.9999 8.16992C9.43414 8.16992 8.16992 9.43414 8.16992 10.9999C8.16992 11.5103 8.30385 11.9864 8.54021 12.399L12.399 8.54021C11.9864 8.30385 11.5103 8.16992 10.9999 8.16992ZM6.66992 10.9999C6.66992 8.60571 8.60571 6.66992 10.9999 6.66992C12.1977 6.66992 13.276 7.15536 14.0603 7.93959C14.3531 8.23249 14.3531 8.70736 14.0603 9.00025L9.00025 14.0603C8.70736 14.3531 8.23249 14.3531 7.93959 14.0603C7.15536 13.276 6.66992 12.1977 6.66992 10.9999Z" fill="#BBBEC7"/>
<path fill-rule="evenodd" clip-rule="evenodd" d="M1.25758 8.00743C3.6485 4.24907 7.15211 1.98047 11.0001 1.98047C13.2497 1.98047 15.4056 2.76408 17.2717 4.1717C17.6024 4.42114 17.6683 4.89142 17.4189 5.22211C17.1694 5.5528 16.6991 5.61867 16.3684 5.36923C14.7346 4.13686 12.8905 3.48047 11.0001 3.48047C7.78823 3.48047 4.71198 5.37167 2.52291 8.81301L2.52228 8.814C2.16769 9.36951 1.96509 10.1647 1.96509 11.0055C1.96509 11.8462 2.16769 12.6414 2.52228 13.1969L2.52262 13.1975C3.2764 14.3806 4.1492 15.3935 5.08912 16.2018C5.40317 16.4719 5.43881 16.9454 5.16873 17.2595C4.89864 17.5735 4.42511 17.6092 4.11106 17.3391C3.05098 16.4274 2.08378 15.3003 1.25755 14.0035C0.712377 13.1491 0.465088 12.0545 0.465088 11.0055C0.465088 9.95642 0.712386 8.86185 1.25758 8.00743Z" fill="#BBBEC7"/>
<path fill-rule="evenodd" clip-rule="evenodd" d="M18.58 6.3453C18.9028 6.08569 19.3749 6.13688 19.6345 6.45964C20.0184 6.93691 20.3955 7.44977 20.7434 7.99785C21.288 8.85209 21.5351 9.94615 21.5351 10.9947C21.5351 12.0438 21.2878 13.1383 20.7426 13.9927C18.3517 17.7511 14.8481 20.0197 11.0001 20.0197C9.66358 20.0197 8.35494 19.7371 7.12907 19.2209C6.74732 19.0602 6.56815 18.6204 6.72889 18.2387C6.88963 17.8569 7.32941 17.6777 7.71116 17.8385C8.76529 18.2823 9.87665 18.5197 11.0001 18.5197C14.212 18.5197 17.2882 16.6285 19.4773 13.1872L19.4779 13.1862C19.8325 12.6307 20.0351 11.8355 20.0351 10.9947C20.0351 10.154 19.8325 9.35876 19.4779 8.80324L19.4769 8.80158C19.1647 8.30966 18.8218 7.84252 18.4657 7.39978C18.2061 7.07702 18.2573 6.60492 18.58 6.3453Z" fill="#BBBEC7"/>
<path fill-rule="evenodd" clip-rule="evenodd" d="M14.6461 10.9628C15.0534 11.0379 15.3228 11.429 15.2476 11.8363C14.9312 13.5522 13.5419 14.9415 11.8261 15.2579C11.4187 15.333 11.0276 15.0637 10.9525 14.6563C10.8774 14.249 11.1467 13.8579 11.5541 13.7828C12.6582 13.5792 13.5689 12.6685 13.7725 11.5643C13.8476 11.157 14.2387 10.8876 14.6461 10.9628Z" fill="#BBBEC7"/>
<path fill-rule="evenodd" clip-rule="evenodd" d="M9.00033 12.9999C9.29322 13.2928 9.29322 13.7677 9.00033 14.0606L1.53033 21.5306C1.23744 21.8235 0.762563 21.8235 0.46967 21.5306C0.176777 21.2377 0.176777 20.7628 0.46967 20.4699L7.93967 12.9999C8.23256 12.7071 8.70744 12.7071 9.00033 12.9999Z" fill="#BBBEC7"/>
<path fill-rule="evenodd" clip-rule="evenodd" d="M21.5304 0.46967C21.8233 0.762563 21.8233 1.23744 21.5304 1.53033L14.0604 9.00033C13.7675 9.29322 13.2926 9.29322 12.9997 9.00033C12.7068 8.70744 12.7068 8.23256 12.9997 7.93967L20.4697 0.46967C20.7626 0.176777 21.2375 0.176777 21.5304 0.46967Z" fill="#BBBEC7"/>
</svg>
