<svg width="24" height="24" viewBox="0 0 24 24" fill="none" xmlns="http://www.w3.org/2000/svg">
<path fill-rule="evenodd" clip-rule="evenodd" d="M11.9999 9.16992C10.4341 9.16992 9.16992 10.4341 9.16992 11.9999C9.16992 13.5657 10.4341 14.8299 11.9999 14.8299C13.5657 14.8299 14.8299 13.5657 14.8299 11.9999C14.8299 10.4341 13.5657 9.16992 11.9999 9.16992ZM7.66992 11.9999C7.66992 9.60571 9.60571 7.66992 11.9999 7.66992C14.3941 7.66992 16.3299 9.60571 16.3299 11.9999C16.3299 14.3941 14.3941 16.3299 11.9999 16.3299C9.60571 16.3299 7.66992 14.3941 7.66992 11.9999Z" fill="#777E91"/>
<path fill-rule="evenodd" clip-rule="evenodd" d="M2.25758 8.99669C4.6485 5.23833 8.15211 2.96973 12.0001 2.96973C15.8482 2.96973 19.352 5.23852 21.7429 8.99718C22.2879 9.85152 22.5351 10.9459 22.5351 11.9947C22.5351 13.0436 22.2879 14.1379 21.7429 14.9923C19.352 18.7509 15.8482 21.0197 12.0001 21.0197C8.15194 21.0197 4.64819 18.7509 2.25727 14.9923C1.71229 14.1379 1.46509 13.0436 1.46509 11.9947C1.46509 10.9457 1.71239 9.8511 2.25758 8.99669ZM12.0001 4.46973C8.78823 4.46973 5.71198 6.36093 3.52291 9.80227L3.52228 9.80325C3.16769 10.3588 2.96509 11.154 2.96509 11.9947C2.96509 12.8355 3.16769 13.6307 3.52228 14.1862L3.52291 14.1872C5.71198 17.6285 8.78824 19.5197 12.0001 19.5197C15.2119 19.5197 18.2882 17.6285 20.4773 14.1872L20.4779 14.1862C20.8325 13.6307 21.0351 12.8355 21.0351 11.9947C21.0351 11.154 20.8325 10.3588 20.4779 9.80325L20.4773 9.80227C18.2882 6.36093 15.2119 4.46973 12.0001 4.46973Z" fill="#777E91"/>
</svg>
