<svg width="26" height="18" viewBox="0 0 26 18" fill="none" xmlns="http://www.w3.org/2000/svg">
<mask id="mask0_2034_42157" style="mask-type:alpha" maskUnits="userSpaceOnUse" x="0" y="0" width="26" height="18">
<rect width="25.2" height="18" rx="2" fill="white"/>
</mask>
<g mask="url(#mask0_2034_42157)">
<rect width="25.2" height="18" fill="#EE343C"/>
<path fill-rule="evenodd" clip-rule="evenodd" d="M11.1861 3.98656C10.9614 3.76185 10.6093 3.72698 10.3449 3.90326L9.95546 4.16287C9.52955 4.44681 9.56927 5.08493 10.0271 5.31385L11.0311 5.81584C11.2569 5.92876 11.3996 6.15961 11.3996 6.41212V6.53343C11.3996 6.90162 11.1011 7.2001 10.7329 7.2001H10.357C10.2535 7.2001 10.1514 7.176 10.0588 7.12972L8.22939 6.21499C7.97273 6.08666 7.66275 6.13696 7.45984 6.33987L7.25365 6.54606C6.93189 6.86782 7.01991 7.41025 7.42691 7.61375L8.19373 7.99716C8.55282 8.1767 8.58397 8.67719 8.24993 8.89988V8.89988C7.86233 9.15828 7.98064 9.7563 8.43742 9.84766L8.94317 9.94881C9.42876 10.0459 9.57071 10.6718 9.17455 10.9689L8.72177 11.3085C8.42637 11.53 8.58306 12.0001 8.95231 12.0001V12.0001C8.98372 12.0001 9.01502 11.9962 9.0455 11.9886L10.1811 11.7047C10.6117 11.5971 10.9491 12.0759 10.7029 12.4452V12.4452C10.4878 12.7679 10.7191 13.2001 11.1069 13.2001H11.6321C11.8516 13.2001 12.0464 13.3406 12.1158 13.5488V13.5488C12.2708 14.0137 12.9284 14.0137 13.0834 13.5488V13.5488C13.1528 13.3406 13.3477 13.2001 13.5672 13.2001H14.0923C14.4801 13.2001 14.7114 12.7679 14.4963 12.4452V12.4452C14.2501 12.0759 14.5875 11.5971 15.0181 11.7047L16.1537 11.9886C16.1842 11.9962 16.2155 12.0001 16.2469 12.0001V12.0001C16.6162 12.0001 16.7729 11.53 16.4775 11.3085L16.0247 10.9689C15.6285 10.6718 15.7705 10.0459 16.256 9.94881L16.7618 9.84766C17.2186 9.7563 17.3369 9.15828 16.9493 8.89988V8.89988C16.6152 8.67719 16.6464 8.1767 17.0055 7.99716L17.7723 7.61375C18.1793 7.41025 18.2673 6.86782 17.9456 6.54606L17.7394 6.33987C17.5365 6.13696 17.2265 6.08666 16.9698 6.21499L15.1404 7.12972C15.0478 7.176 14.9457 7.2001 14.8422 7.2001H14.4663C14.0981 7.2001 13.7996 6.90162 13.7996 6.53343V6.41212C13.7996 6.15961 13.942 5.92893 14.1678 5.816C14.4806 5.65961 14.8419 5.47896 15.1723 5.31375C15.6301 5.08483 15.6697 4.44681 15.2438 4.16287L14.8544 3.90326C14.5899 3.72698 14.2379 3.76185 14.0132 3.98656L13.071 4.92869C12.8107 5.18904 12.3886 5.18904 12.1282 4.92869L11.1861 3.98656Z" fill="#262626"/>
</g>
</svg>
