<svg width="13" height="13" viewBox="0 0 13 13" fill="none" xmlns="http://www.w3.org/2000/svg">
<path d="M6.33475 3.41877C4.53754 3.41877 3.0879 4.86873 3.0879 6.66634C3.0879 8.46395 4.53754 9.91391 6.33475 9.91391C8.13196 9.91391 9.5816 8.46395 9.5816 6.66634C9.5816 4.86873 8.13196 3.41877 6.33475 3.41877ZM6.33475 8.77769C5.17334 8.77769 4.22387 7.83083 4.22387 6.66634C4.22387 5.50185 5.17052 4.55499 6.33475 4.55499C7.49898 4.55499 8.44562 5.50185 8.44562 6.66634C8.44562 7.83083 7.49615 8.77769 6.33475 8.77769ZM10.4717 3.28593C10.4717 3.70706 10.1326 4.04341 9.71441 4.04341C9.29336 4.04341 8.95709 3.70424 8.95709 3.28593C8.95709 2.86761 9.29619 2.52844 9.71441 2.52844C10.1326 2.52844 10.4717 2.86761 10.4717 3.28593ZM12.6222 4.05472C12.5741 3.04003 12.3424 2.14122 11.5992 1.40069C10.8589 0.660168 9.96025 0.4284 8.94579 0.377524C7.90024 0.318169 4.76643 0.318169 3.72088 0.377524C2.70924 0.425574 1.81063 0.657341 1.06745 1.39787C0.324261 2.13839 0.0953709 3.0372 0.0445064 4.05189C-0.0148355 5.09767 -0.0148355 8.23219 0.0445064 9.27797C0.0925451 10.2927 0.324261 11.1915 1.06745 11.932C1.81063 12.6725 2.70641 12.9043 3.72088 12.9552C4.76643 13.0145 7.90024 13.0145 8.94579 12.9552C9.96025 12.9071 10.8589 12.6753 11.5992 11.932C12.3396 11.1915 12.5713 10.2927 12.6222 9.27797C12.6815 8.23219 12.6815 5.1005 12.6222 4.05472ZM11.2714 10.4001C11.051 10.954 10.6243 11.3808 10.0676 11.6041C9.23402 11.9348 7.25596 11.8585 6.33475 11.8585C5.41353 11.8585 3.43265 11.932 2.60186 11.6041C2.048 11.3837 1.62131 10.9569 1.39807 10.4001C1.06745 9.56626 1.14374 7.58776 1.14374 6.66634C1.14374 5.74492 1.07027 3.76359 1.39807 2.93262C1.61848 2.37864 2.04518 1.95185 2.60186 1.72856C3.43547 1.39787 5.41353 1.47418 6.33475 1.47418C7.25596 1.47418 9.23685 1.40069 10.0676 1.72856C10.6215 1.94902 11.0482 2.37581 11.2714 2.93262C11.602 3.76642 11.5257 5.74492 11.5257 6.66634C11.5257 7.58776 11.602 9.56909 11.2714 10.4001Z" fill="white"/>
</svg>
