<svg width="14" height="14" viewBox="0 0 14 14" fill="none" xmlns="http://www.w3.org/2000/svg">
<path d="M4.36328 10.7039L6.17161 12.1039C6.40495 12.3373 6.92995 12.4539 7.27995 12.4539H9.49662C10.1966 12.4539 10.9549 11.9289 11.1299 11.2289L12.5299 6.97061C12.8216 6.15394 12.2966 5.45394 11.4216 5.45394H9.08828C8.73828 5.45394 8.44662 5.16228 8.50495 4.75394L8.79662 2.88728C8.91328 2.36228 8.56328 1.77894 8.03828 1.60394C7.57161 1.42894 6.98828 1.66228 6.75495 2.01228L4.36328 5.57061" fill="#03BC70"/>
<path d="M1.38867 10.7044V4.98773C1.38867 4.17106 1.73867 3.87939 2.55534 3.87939H3.13867C3.95534 3.87939 4.30534 4.17106 4.30534 4.98773V10.7044C4.30534 11.5211 3.95534 11.8127 3.13867 11.8127H2.55534C1.73867 11.8127 1.38867 11.5211 1.38867 10.7044Z" fill="#03BC70"/>
</svg>
