<svg width="34" height="34" viewBox="0 0 34 34" fill="none" xmlns="http://www.w3.org/2000/svg">
<circle cx="17" cy="17" r="17" fill="#EBE638" fill-opacity="0.2"/>
<path d="M10.8184 24.9394C11.2305 25.4182 11.9517 26.1333 13.0365 26.7091C14.2971 27.3758 15.4608 27.5333 16.1274 27.5758C16.5214 27.5576 17.1638 27.4849 17.885 27.1636C18.6062 26.8424 19.0911 26.4182 19.3699 26.1333C19.6729 25.8606 20.1153 25.4727 20.6608 25.0121C21.8668 23.9818 22.485 23.4606 23.1941 22.9818C23.5577 22.7333 24.0487 22.4303 24.6547 22.1152C24.9759 21.9515 25.3032 21.8061 25.6365 21.6727C26.085 21.4909 26.8365 21.097 27.4547 20.297C28.2002 19.3212 28.3093 18.3091 28.3335 17.9333C28.3032 17.4546 28.2123 16.8061 27.9517 16.0849C27.7456 15.5091 27.4971 15.0424 27.2668 14.6909C26.3759 16.2849 24.4426 19.2243 20.8729 21.6C16.7335 24.3576 12.6668 24.8364 10.8184 24.9394Z" fill="#0293D6"/>
<path d="M13.1396 7.73332C13.376 7.4909 13.679 7.22423 14.073 6.98181C15.0912 6.3515 16.1093 6.25453 16.6548 6.24241C16.9093 6.22423 17.2669 6.22423 17.6851 6.33332C18.2972 6.4909 18.7154 6.79999 18.9457 6.98787C19.4851 7.36362 20.1881 7.78181 21.0669 8.13332C22.3033 8.63029 23.4124 8.79999 24.2184 8.86059C24.3821 8.86665 24.6184 8.87878 24.8972 8.92726C25.3942 9.01817 26.5033 9.21211 27.2184 10.1151C27.776 10.8182 27.8366 11.6303 27.8427 12.0121C27.8245 12.406 27.7699 12.8667 27.6609 13.3757C27.5518 13.8848 27.4124 14.3273 27.2669 14.697C22.5578 12.3757 17.8487 10.0545 13.1396 7.73332H13.1396Z" fill="#EBE638"/>
<path d="M10.8185 24.9395C10.2973 24.8728 9.55184 24.7274 8.72154 24.3698C7.86699 24.0001 6.7882 23.5395 6.15184 22.4183C5.74578 21.7031 5.66699 20.9819 5.66699 20.4971C5.67305 20.0486 5.70942 19.5152 5.83063 18.9213C6.00639 18.0304 6.30336 17.3031 6.57002 16.7698C6.79426 16.2364 7.01245 15.6304 7.20639 14.9698C7.48517 14.0183 7.64881 13.1455 7.75184 12.3758C7.82457 11.8607 7.92154 11.4425 8.00639 11.1455C8.18214 10.5092 8.34578 9.93342 8.77608 9.33948C9.01851 9.00009 9.27305 8.75766 9.44275 8.61221C9.84881 8.3516 10.5094 7.99403 11.4003 7.81221C12.1094 7.66675 12.7215 7.68494 13.1458 7.73342C12.1821 9.10312 10.4791 11.9092 9.90336 15.8849C9.2973 20.0425 10.2488 23.3516 10.8185 24.9395V24.9395Z" fill="#BAD147"/>
<path d="M13.1395 7.73328C13.0425 7.72722 16.394 7.9454 18.4486 8.66055C19.0607 8.87267 19.6183 9.11509 20.1274 9.36358C19.4668 9.32116 15.2486 9.13328 12.0243 12.3757C7.98192 16.4424 9.29707 22.109 9.3698 22.4242C8.97586 21.9212 8.38192 21.0121 8.14555 19.7393C8.03646 19.1636 8.0304 18.6545 8.05464 18.2363C8.09707 17.0848 8.29707 15.5454 8.91525 13.8363C10.0607 10.6909 12.0243 8.70297 13.1395 7.73328Z" fill="#78B650"/>
<path d="M21.2368 22.7272C21.7883 21.7393 22.8368 19.5272 22.7641 16.5696C22.6671 12.7938 20.8065 10.212 20.1338 9.36353C20.5156 9.42413 21.0671 9.54534 21.7035 9.78171C23.0974 10.309 23.9823 11.0847 24.7823 11.7999C25.4671 12.412 26.3883 13.3514 27.2671 14.6969C26.8611 15.7635 26.255 17.0484 25.3399 18.3938C23.958 20.4363 22.4065 21.8363 21.2368 22.7272Z" fill="#2F8260"/>
<path fill-rule="evenodd" clip-rule="evenodd" d="M20.2307 9.36353C20.8247 9.65444 22.1883 10.4241 23.2004 12.0302C24.3095 13.7938 24.3338 15.5211 24.3095 16.1696C24.1701 20.1029 21.4792 22.5999 21.2247 22.8181C19.4022 24.381 17.3334 24.7783 16.4123 24.9552L16.4004 24.9575C15.6004 25.109 14.9217 25.1514 14.4307 25.1575C13.8429 25.1938 13.1701 25.1999 12.4307 25.1393C11.8792 25.0969 11.3762 25.0241 10.9156 24.9393C10.4732 24.3757 9.95801 23.5938 9.53983 22.5938C8.87923 21.012 8.75801 19.5817 8.75195 18.6726C8.77013 17.9696 8.92165 14.5332 11.7035 11.8666C15.1762 8.53929 19.7459 9.27868 20.2307 9.36353ZM16.5459 22.7999C16.9156 22.7999 19.3338 22.7817 21.0186 20.8181C22.3597 19.2605 22.376 17.4582 22.3821 16.7851L22.3823 16.7696L22.3822 16.7682C22.3758 16.5253 22.28 12.8758 19.4914 11.3575C18.2004 10.6544 16.9217 10.7272 16.552 10.7514C15.061 10.8544 14.0429 11.5332 13.6126 11.8241C13.1035 12.1757 10.8065 13.8484 10.7217 16.7757C10.655 18.9514 11.855 20.4363 12.0732 20.6969C13.7701 22.7332 16.2004 22.7938 16.5459 22.7999Z" fill="#085229"/>
</svg>
