<svg width="13" height="12" viewBox="0 0 13 12" fill="none" xmlns="http://www.w3.org/2000/svg">
<path d="M11.6979 3.32532C11.706 3.44198 11.706 3.55866 11.706 3.67532C11.706 7.23364 9.09387 11.3337 4.31973 11.3337C2.84891 11.3337 1.48258 10.892 0.333252 10.1253C0.542228 10.1503 0.743139 10.1587 0.960155 10.1587C2.17376 10.1587 3.29095 9.73367 4.18309 9.00867C3.0418 8.98366 2.08537 8.20867 1.75583 7.14199C1.91659 7.16697 2.07733 7.18365 2.24612 7.18365C2.4792 7.18365 2.71229 7.1503 2.92929 7.092C1.73978 6.84198 0.847615 5.75865 0.847615 4.45032V4.417C1.1932 4.617 1.5951 4.742 2.02104 4.75865C1.3218 4.2753 0.863695 3.45031 0.863695 2.51697C0.863695 2.01698 0.992268 1.55865 1.21732 1.15865C2.49525 2.79198 4.41617 3.85863 6.57013 3.97531C6.52995 3.77531 6.50583 3.567 6.50583 3.35866C6.50583 1.87531 7.6632 0.666992 9.10186 0.666992C9.84932 0.666992 10.5244 0.991991 10.9987 1.51699C11.5854 1.40033 12.148 1.17532 12.6463 0.866994C12.4534 1.49201 12.0435 2.01701 11.505 2.35032C12.0274 2.29201 12.5338 2.14198 12.9999 1.93367C12.6463 2.46698 12.2043 2.94196 11.6979 3.32532V3.32532Z" fill="white"/>
</svg>
