<svg width="23" height="16" viewBox="0 0 23 16" fill="none" xmlns="http://www.w3.org/2000/svg">
<rect width="22.4" height="16" rx="2" fill="white"/>
<mask id="mask0_446_24645" style="mask-type:alpha" maskUnits="userSpaceOnUse" x="0" y="0" width="23" height="16">
<rect width="22.4" height="16" rx="2" fill="white"/>
</mask>
<g mask="url(#mask0_446_24645)">
<path fill-rule="evenodd" clip-rule="evenodd" d="M22.4 0H0V1.06667H22.4V0ZM22.4 2.13334H0V3.20001H22.4V2.13334ZM0 4.26666H22.4V5.33333H0V4.26666ZM22.4 6.4H0V7.46667H22.4V6.4ZM0 8.53334H22.4V9.60001H0V8.53334ZM22.4 10.6667H0V11.7333H22.4V10.6667ZM0 12.8H22.4V13.8667H0V12.8ZM22.4 14.9333H0V16H22.4V14.9333Z" fill="#D02F44"/>
<rect width="9.6" height="7.46667" fill="#46467F"/>
<g filter="url(#filter0_d_446_24645)">
<path fill-rule="evenodd" clip-rule="evenodd" d="M2.13332 1.59974C2.13332 1.89429 1.89454 2.13307 1.59998 2.13307C1.30543 2.13307 1.06665 1.89429 1.06665 1.59974C1.06665 1.30519 1.30543 1.06641 1.59998 1.06641C1.89454 1.06641 2.13332 1.30519 2.13332 1.59974ZM4.26663 1.59974C4.26663 1.89429 4.02785 2.13307 3.7333 2.13307C3.43875 2.13307 3.19997 1.89429 3.19997 1.59974C3.19997 1.30519 3.43875 1.06641 3.7333 1.06641C4.02785 1.06641 4.26663 1.30519 4.26663 1.59974ZM5.86667 2.13307C6.16122 2.13307 6.4 1.89429 6.4 1.59974C6.4 1.30519 6.16122 1.06641 5.86667 1.06641C5.57212 1.06641 5.33333 1.30519 5.33333 1.59974C5.33333 1.89429 5.57212 2.13307 5.86667 2.13307ZM8.53332 1.59974C8.53332 1.89429 8.29454 2.13307 7.99998 2.13307C7.70543 2.13307 7.46665 1.89429 7.46665 1.59974C7.46665 1.30519 7.70543 1.06641 7.99998 1.06641C8.29454 1.06641 8.53332 1.30519 8.53332 1.59974ZM2.66667 3.19973C2.96122 3.19973 3.2 2.96095 3.2 2.6664C3.2 2.37185 2.96122 2.13306 2.66667 2.13306C2.37211 2.13306 2.13333 2.37185 2.13333 2.6664C2.13333 2.96095 2.37211 3.19973 2.66667 3.19973ZM5.33332 2.6664C5.33332 2.96095 5.09454 3.19973 4.79998 3.19973C4.50543 3.19973 4.26665 2.96095 4.26665 2.6664C4.26665 2.37185 4.50543 2.13306 4.79998 2.13306C5.09454 2.13306 5.33332 2.37185 5.33332 2.6664ZM6.9333 3.19973C7.22785 3.19973 7.46663 2.96095 7.46663 2.6664C7.46663 2.37185 7.22785 2.13306 6.9333 2.13306C6.63875 2.13306 6.39997 2.37185 6.39997 2.6664C6.39997 2.96095 6.63875 3.19973 6.9333 3.19973ZM8.53332 3.73308C8.53332 4.02763 8.29454 4.26641 7.99998 4.26641C7.70543 4.26641 7.46665 4.02763 7.46665 3.73308C7.46665 3.43853 7.70543 3.19975 7.99998 3.19975C8.29454 3.19975 8.53332 3.43853 8.53332 3.73308ZM5.86667 4.26641C6.16122 4.26641 6.4 4.02763 6.4 3.73308C6.4 3.43853 6.16122 3.19975 5.86667 3.19975C5.57212 3.19975 5.33333 3.43853 5.33333 3.73308C5.33333 4.02763 5.57212 4.26641 5.86667 4.26641ZM4.26663 3.73308C4.26663 4.02763 4.02785 4.26641 3.7333 4.26641C3.43875 4.26641 3.19997 4.02763 3.19997 3.73308C3.19997 3.43853 3.43875 3.19975 3.7333 3.19975C4.02785 3.19975 4.26663 3.43853 4.26663 3.73308ZM1.59998 4.26641C1.89454 4.26641 2.13332 4.02763 2.13332 3.73308C2.13332 3.43853 1.89454 3.19975 1.59998 3.19975C1.30543 3.19975 1.06665 3.43853 1.06665 3.73308C1.06665 4.02763 1.30543 4.26641 1.59998 4.26641ZM3.2 4.79974C3.2 5.09429 2.96122 5.33307 2.66667 5.33307C2.37211 5.33307 2.13333 5.09429 2.13333 4.79974C2.13333 4.50519 2.37211 4.26641 2.66667 4.26641C2.96122 4.26641 3.2 4.50519 3.2 4.79974ZM4.79998 5.33307C5.09454 5.33307 5.33332 5.09429 5.33332 4.79974C5.33332 4.50519 5.09454 4.26641 4.79998 4.26641C4.50543 4.26641 4.26665 4.50519 4.26665 4.79974C4.26665 5.09429 4.50543 5.33307 4.79998 5.33307ZM7.46663 4.79974C7.46663 5.09429 7.22785 5.33307 6.9333 5.33307C6.63875 5.33307 6.39997 5.09429 6.39997 4.79974C6.39997 4.50519 6.63875 4.26641 6.9333 4.26641C7.22785 4.26641 7.46663 4.50519 7.46663 4.79974ZM7.99998 6.39973C8.29454 6.39973 8.53332 6.16095 8.53332 5.8664C8.53332 5.57185 8.29454 5.33307 7.99998 5.33307C7.70543 5.33307 7.46665 5.57185 7.46665 5.8664C7.46665 6.16095 7.70543 6.39973 7.99998 6.39973ZM6.4 5.8664C6.4 6.16095 6.16122 6.39973 5.86667 6.39973C5.57212 6.39973 5.33333 6.16095 5.33333 5.8664C5.33333 5.57185 5.57212 5.33307 5.86667 5.33307C6.16122 5.33307 6.4 5.57185 6.4 5.8664ZM3.7333 6.39973C4.02785 6.39973 4.26663 6.16095 4.26663 5.8664C4.26663 5.57185 4.02785 5.33307 3.7333 5.33307C3.43875 5.33307 3.19997 5.57185 3.19997 5.8664C3.19997 6.16095 3.43875 6.39973 3.7333 6.39973ZM2.13332 5.8664C2.13332 6.16095 1.89454 6.39973 1.59998 6.39973C1.30543 6.39973 1.06665 6.16095 1.06665 5.8664C1.06665 5.57185 1.30543 5.33307 1.59998 5.33307C1.89454 5.33307 2.13332 5.57185 2.13332 5.8664Z" fill="url(#paint0_linear_446_24645)"/>
</g>
</g>
<defs>
<filter id="filter0_d_446_24645" x="1.06665" y="1.06641" width="7.46655" height="6.33301" filterUnits="userSpaceOnUse" color-interpolation-filters="sRGB">
<feFlood flood-opacity="0" result="BackgroundImageFix"/>
<feColorMatrix in="SourceAlpha" type="matrix" values="0 0 0 0 0 0 0 0 0 0 0 0 0 0 0 0 0 0 127 0" result="hardAlpha"/>
<feOffset dy="1"/>
<feColorMatrix type="matrix" values="0 0 0 0 0 0 0 0 0 0 0 0 0 0 0 0 0 0 0.06 0"/>
<feBlend mode="normal" in2="BackgroundImageFix" result="effect1_dropShadow_446_24645"/>
<feBlend mode="normal" in="SourceGraphic" in2="effect1_dropShadow_446_24645" result="shape"/>
</filter>
<linearGradient id="paint0_linear_446_24645" x1="1.06665" y1="1.06641" x2="1.06665" y2="6.39974" gradientUnits="userSpaceOnUse">
<stop stop-color="white"/>
<stop offset="1" stop-color="#F0F0F0"/>
</linearGradient>
</defs>
</svg>
