<svg width="34" height="34" viewBox="0 0 34 34" fill="none" xmlns="http://www.w3.org/2000/svg">
<path opacity="0.2" d="M17 34C26.4209 34 34 26.4209 34 17C34 7.57911 26.4209 0 17 0C7.57911 0 0 7.57911 0 17C0 26.4209 7.57911 34 17 34Z" fill="#2775CA"/>
<path d="M21.6752 19.6916C21.6752 17.2125 20.1877 16.3625 17.2127 16.0084C15.0877 15.725 14.6627 15.1584 14.6627 14.1666C14.6627 13.1748 15.3711 12.5375 16.7877 12.5375C18.0627 12.5375 18.7711 12.9625 19.1252 14.025C19.1961 14.2375 19.4086 14.3791 19.6211 14.3791H20.7543C21.0377 14.3791 21.2502 14.1666 21.2502 13.8834V13.8125C20.9668 12.2541 19.6918 11.05 18.0627 10.9084V9.20838C18.0627 8.92499 17.8502 8.71249 17.4961 8.6416H16.4336C16.1502 8.6416 15.9377 8.8541 15.8668 9.20838V10.8375C13.7418 11.1209 12.3961 12.5375 12.3961 14.3084C12.3961 16.6459 13.8127 17.5666 16.7877 17.9209C18.7711 18.275 19.4086 18.7 19.4086 19.8334C19.4086 20.9668 18.4168 21.7459 17.0711 21.7459C15.2293 21.7459 14.5918 20.9666 14.3793 19.9041C14.3086 19.6209 14.0961 19.4791 13.8836 19.4791H12.6793C12.3961 19.4791 12.1836 19.6916 12.1836 19.975V20.0459C12.4668 21.8166 13.6002 23.0916 15.9377 23.4459V25.1459C15.9377 25.4291 16.1502 25.6416 16.5043 25.7125H17.5668C17.8502 25.7125 18.0627 25.5 18.1336 25.1459V23.4459C20.2586 23.0916 21.6752 21.6041 21.6752 19.6916V19.6916Z" fill="#2775CA"/>
<path fill-rule="evenodd" clip-rule="evenodd" d="M7.08379 13.5292C5.02952 18.9835 7.8629 25.146 13.3879 27.1292C13.6004 27.271 13.8129 27.5542 13.8129 27.7667V28.7585C13.8129 28.9001 13.8129 28.971 13.742 29.0417C13.6713 29.3251 13.3879 29.4667 13.1045 29.3251C9.13791 28.0501 6.09202 25.0042 4.81701 21.0376C2.69202 14.3085 6.37541 7.15422 13.1045 5.02922C13.1754 4.9585 13.317 4.9585 13.3879 4.9585C13.6713 5.02922 13.8129 5.24172 13.8129 5.52511V6.51672C13.8129 6.871 13.6713 7.0835 13.3879 7.22511C10.4838 8.28761 8.14629 10.5542 7.08379 13.5292ZM20.2588 5.31261C20.3295 5.02922 20.6129 4.88761 20.8963 5.02922C24.792 6.30422 27.9088 9.35011 29.1838 13.3876C31.3088 20.1167 27.6254 27.271 20.8963 29.396C20.8254 29.4667 20.6838 29.4667 20.6129 29.4667C20.3295 29.396 20.1879 29.1835 20.1879 28.9001V27.9085C20.1879 27.5542 20.3295 27.3417 20.6129 27.2001C23.517 26.1376 25.8545 23.871 26.917 20.896C28.9713 15.4417 26.1379 9.27922 20.6129 7.296C20.4004 7.15422 20.1879 6.871 20.1879 6.58761V5.596C20.1879 5.45422 20.1879 5.3835 20.2588 5.31261Z" fill="#2775CA"/>
</svg>
