<svg width="13" height="8" viewBox="0 0 13 8" fill="none" xmlns="http://www.w3.org/2000/svg">
<path d="M12.378 0.5425C12.465 0.23 12.378 0 11.9594 0H10.5744C10.2217 0 10.0595 0.1975 9.97246 0.4175C9.97246 0.4175 9.26703 2.245 8.27002 3.43C7.94787 3.7725 7.79973 3.8825 7.62337 3.8825C7.53637 3.8825 7.40234 3.7725 7.40234 3.46V0.5425C7.40234 0.1675 7.30358 0 7.012 0H4.83456C4.61353 0 4.48185 0.175 4.48185 0.3375C4.48185 0.6925 4.98035 0.775 5.03208 1.775V3.945C5.03208 4.42 4.95214 4.5075 4.77578 4.5075C4.30549 4.5075 3.16269 2.6725 2.48547 0.5725C2.34909 0.165 2.21506 0 1.85999 0H0.474991C0.079949 0 0 0.1975 0 0.4175C0 0.8075 0.470288 2.745 2.18919 5.305C3.33434 7.0525 4.94743 8 6.41473 8C7.29652 8 7.40469 7.79 7.40469 7.4275C7.40469 5.7575 7.32474 5.6 7.76681 5.6C7.97139 5.6 8.3241 5.71 9.14711 6.5525C10.0877 7.5525 10.2429 8 10.7696 8H12.1546C12.5496 8 12.7495 7.79 12.6343 7.375C12.3709 6.5025 10.5909 4.7075 10.5109 4.5875C10.3064 4.3075 10.3652 4.1825 10.5109 3.9325C10.5133 3.93 12.204 1.4 12.378 0.5425Z" fill="white"/>
</svg>
