<svg width="14" height="10" viewBox="0 0 14 10" fill="none" xmlns="http://www.w3.org/2000/svg">
<path d="M13.0687 2.12734C12.9231 1.55252 12.4938 1.0998 11.9489 0.946166C10.9611 0.666992 7.00008 0.666992 7.00008 0.666992C7.00008 0.666992 3.03912 0.666992 2.0513 0.946166C1.50632 1.09983 1.07711 1.55252 0.93143 2.12734C0.666748 3.16925 0.666748 5.34309 0.666748 5.34309C0.666748 5.34309 0.666748 7.51693 0.93143 8.55884C1.07711 9.13366 1.50632 9.56752 2.0513 9.72115C3.03912 10.0003 7.00008 10.0003 7.00008 10.0003C7.00008 10.0003 10.961 10.0003 11.9489 9.72115C12.4938 9.56752 12.9231 9.13366 13.0687 8.55884C13.3334 7.51693 13.3334 5.34309 13.3334 5.34309C13.3334 5.34309 13.3334 3.16925 13.0687 2.12734ZM5.70462 7.31677V3.36941L9.01521 5.34314L5.70462 7.31677Z" fill="white"/>
</svg>
