<svg width="24" height="24" viewBox="0 0 24 24" fill="none" xmlns="http://www.w3.org/2000/svg">
<g clip-path="url(#clip0_4368_52689)">
<path d="M24.0007 12C24.0007 5.37258 18.6281 0 12.0007 0C5.37325 0 0.000671387 5.37258 0.000671387 12C0.000671387 17.9895 4.38887 22.954 10.1257 23.8542V15.4688H7.0788V12H10.1257V9.35625C10.1257 6.34875 11.9172 4.6875 14.6582 4.6875C15.9707 4.6875 17.3444 4.92188 17.3444 4.92188V7.875H15.8313C14.3407 7.875 13.8757 8.80008 13.8757 9.75V12H17.2038L16.6718 15.4688H13.8757V23.8542C19.6125 22.954 24.0007 17.9895 24.0007 12Z" fill="#1877F2"/>
<path d="M16.6718 15.4688L17.2038 12H13.8757V9.75C13.8757 8.80102 14.3407 7.875 15.8313 7.875H17.3444V4.92188C17.3444 4.92188 15.9712 4.6875 14.6582 4.6875C11.9172 4.6875 10.1257 6.34875 10.1257 9.35625V12H7.0788V15.4688H10.1257V23.8542C11.3681 24.0486 12.6332 24.0486 13.8757 23.8542V15.4688H16.6718Z" fill="white"/>
</g>
<defs>
<clipPath id="clip0_4368_52689">
<rect width="24" height="24" fill="white" transform="translate(0.000671387)"/>
</clipPath>
</defs>
</svg>
