<svg width="25" height="24" viewBox="0 0 25 24" fill="none" xmlns="http://www.w3.org/2000/svg">
<g clip-path="url(#clip0_4368_52692)">
<path d="M24.0994 12.2763C24.0994 11.4605 24.0332 10.6404 23.8921 9.83789H12.5733V14.4589H19.0551C18.7861 15.9492 17.9219 17.2676 16.6564 18.1054V21.1037H20.5234C22.7942 19.0137 24.0994 15.9272 24.0994 12.2763Z" fill="#4285F4"/>
<path d="M12.5733 24.0008C15.8098 24.0008 18.5392 22.9382 20.5278 21.1039L16.6608 18.1055C15.5849 18.8375 14.196 19.252 12.5777 19.252C9.44711 19.252 6.79269 17.1399 5.84027 14.3003H1.84982V17.3912C3.88694 21.4434 8.03612 24.0008 12.5733 24.0008Z" fill="#34A853"/>
<path d="M5.83587 14.3002C5.33321 12.8099 5.33321 11.196 5.83587 9.70569V6.61475H1.84984C0.147833 10.0055 0.147833 14.0004 1.84984 17.3912L5.83587 14.3002Z" fill="#FBBC04"/>
<path d="M12.5733 4.74966C14.2841 4.7232 15.9376 5.36697 17.1767 6.54867L20.6027 3.12262C18.4333 1.0855 15.554 -0.034466 12.5733 0.000808666C8.03612 0.000808666 3.88693 2.55822 1.84982 6.61481L5.83586 9.70575C6.78387 6.86173 9.44269 4.74966 12.5733 4.74966Z" fill="#EA4335"/>
</g>
<defs>
<clipPath id="clip0_4368_52692">
<rect width="24" height="24" fill="white" transform="translate(0.333344)"/>
</clipPath>
</defs>
</svg>
